# xmcd
#
# Track frame offsets:
#  150
#  16287
#  31678
#  49615
#  65913
#  84689
#  103160
#  116340
#  133634
#  144550
#  165393
#  178436
#
# Disc length: 2580 seconds
#
# Revision: 1
# Processed by: cddbd v1.5.1PL0 Copyright (c) Steve Scherf et al.
# Submitted via: Collectorz.com_Music_Collector 6.9
#
DISCID=a30a120c
DTITLE=Vicki Vann - Dream Catcher
DYEAR=2005
DGENRE=
TTITLE0=Shoulda Left You In Tuscon
TTITLE1=Some Things Momma Don't Know
TTITLE2=I'm Not Any Closer To Getting Over You
TTITLE3=This Is Where I get Off
TTITLE4=White Lies And Pickett Fences
TTITLE5=Chains
TTITLE6=You Must Think My Heart Has Swinging Doors
TTITLE7=It Hurts
TTITLE8=Trouble Is A Woman
TTITLE9=It's Okay To Cry Now
TTITLE10=Delicous Love
TTITLE11=I Won't Settle For Less Than You
EXTD=
EXTT0=
EXTT1=
EXTT2=
EXTT3=
EXTT4=
EXTT5=
EXTT6=
EXTT7=
EXTT8=
EXTT9=
EXTT10=
EXTT11=
PLAYORDER=
